<svg id="Layer_3" height="512" viewBox="0 0 64 64" width="512" xmlns="http://www.w3.org/2000/svg" data-name="Layer 3"><path d="m28 5-3-3-3 3-3-3-3 3-3-3v21h18v-21z" fill="#f4b2b0"/><path d="m42 2h20v14h-20z" fill="#f4b2b0"/><g fill="#b3404a"><path d="m6 55h52a1 1 0 0 0 1-1v-10a1 1 0 0 0 -1-1h-52a1 1 0 0 0 -1 1v10a1 1 0 0 0 1 1zm34.382-10-1 2h-14.764l-1-2zm-33.382 0h14.382l1.723 3.447a1 1 0 0 0 .895.553h16a1 1 0 0 0 .9-.553l1.718-3.447h14.382v8h-50z"/><path d="m12 25h-4a1 1 0 0 0 -1 1v4a1 1 0 0 0 1 1h4a1 1 0 0 0 1-1v-4a1 1 0 0 0 -1-1zm-1 4h-2v-2h2z"/><path d="m20 25h-4a1 1 0 0 0 -1 1v4a1 1 0 0 0 1 1h4a1 1 0 0 0 1-1v-4a1 1 0 0 0 -1-1zm-1 4h-2v-2h2z"/><path d="m28 25h-4a1 1 0 0 0 -1 1v4a1 1 0 0 0 1 1h4a1 1 0 0 0 1-1v-4a1 1 0 0 0 -1-1zm-1 4h-2v-2h2z"/><path d="m36 25h-4a1 1 0 0 0 -1 1v4a1 1 0 0 0 1 1h4a1 1 0 0 0 1-1v-4a1 1 0 0 0 -1-1zm-1 4h-2v-2h2z"/><path d="m12 32h-4a1 1 0 0 0 -1 1v4a1 1 0 0 0 1 1h4a1 1 0 0 0 1-1v-4a1 1 0 0 0 -1-1zm-1 4h-2v-2h2z"/><path d="m20 32h-4a1 1 0 0 0 -1 1v4a1 1 0 0 0 1 1h4a1 1 0 0 0 1-1v-4a1 1 0 0 0 -1-1zm-1 4h-2v-2h2z"/><path d="m28 32h-4a1 1 0 0 0 -1 1v4a1 1 0 0 0 1 1h4a1 1 0 0 0 1-1v-4a1 1 0 0 0 -1-1zm-1 4h-2v-2h2z"/><path d="m36 32h-4a1 1 0 0 0 -1 1v4a1 1 0 0 0 1 1h4a1 1 0 0 0 1-1v-4a1 1 0 0 0 -1-1zm-1 4h-2v-2h2z"/><path d="m62 17a1 1 0 0 0 1-1v-14a1 1 0 0 0 -1-1h-20a1 1 0 0 0 -1 1v14a1 1 0 0 0 1 1h7v18h-5a1 1 0 0 0 -1 1v3h-2v-20a1 1 0 0 0 -1-1h-8v-16a1 1 0 0 0 -1.707-.707l-2.293 2.293-2.293-2.293a1 1 0 0 0 -1.414 0l-2.293 2.293-2.293-2.293a1 1 0 0 0 -1.414 0l-2.293 2.293-2.293-2.293a1 1 0 0 0 -1.707.707v16h-8a1 1 0 0 0 -1 1v20h-1a1 1 0 0 0 -1 1v18a1 1 0 0 0 1 1h1v3a1 1 0 0 0 1 1h10a1 1 0 0 0 1-1v-3h34v3a1 1 0 0 0 1 1h10a1 1 0 0 0 1-1v-3h1a1 1 0 0 0 1-1v-18a1 1 0 0 0 -1-1h-1v-3a1 1 0 0 0 -1-1h-5v-18zm-19-14h18v12h-18zm-27.707 2.707a1 1 0 0 0 1.414 0l2.293-2.293 2.293 2.293a1 1 0 0 0 1.414 0l2.293-2.293 2.293 2.293a1 1 0 0 0 1.414 0l1.293-1.293v17.586h-16v-17.586zm-10.293 14.293h7v2h-2v2h24v-2h-2v-2h7v19h-34zm8 41h-8v-2h8zm46 0h-8v-2h8zm2-4h-58v-16h58zm-2-18h-14v-2h14zm-6-4h-2v-18h2z"/><path d="m22 17a1 1 0 0 1 -1-1h-2a3 3 0 0 0 2 2.816v1.184h2v-1.183a2.993 2.993 0 0 0 -1-5.817 1 1 0 1 1 1-1h2a3 3 0 0 0 -2-2.816v-1.184h-2v1.185a2.993 2.993 0 0 0 1 5.815 1 1 0 0 1 0 2z"/><path d="m45 6h14v2h-14z"/><path d="m45 10h10v2h-10z"/><path d="m57 10h2v2h-2z"/></g></svg>